<?xml version="1.0" encoding="utf-8"?>
<svg version="1.1" id="Layer_1" xmlns="http://www.w3.org/2000/svg" xmlns:xlink="http://www.w3.org/1999/xlink" x="0px" y="0px"
	 viewBox="0 0 1641.099 1641.099" enable-background="new 0 0 1641.099 1641.099" xml:space="preserve">
<g>
	<line fill="none" stroke="#000000" stroke-miterlimit="10" x1="820.549" y1="20.549" x2="1067.763" y2="59.704"/>
	<line fill="none" stroke="#000000" stroke-miterlimit="10" x1="820.549" y1="20.549" x2="1290.778" y2="173.336"/>
	<line fill="none" stroke="#000000" stroke-miterlimit="10" x1="820.549" y1="20.549" x2="1467.763" y2="350.321"/>
	<line fill="none" stroke="#000000" stroke-miterlimit="10" x1="820.549" y1="20.549" x2="1581.395" y2="573.336"/>
	<line fill="none" stroke="#000000" stroke-miterlimit="10" x1="820.549" y1="20.549" x2="1620.549" y2="820.549"/>
	<line fill="none" stroke="#000000" stroke-miterlimit="10" x1="820.549" y1="20.549" x2="1581.395" y2="1067.763"/>
	<line fill="none" stroke="#000000" stroke-miterlimit="10" x1="820.549" y1="20.549" x2="1467.763" y2="1290.778"/>
	<line fill="none" stroke="#000000" stroke-miterlimit="10" x1="820.549" y1="20.549" x2="1290.778" y2="1467.763"/>
	<line fill="none" stroke="#000000" stroke-miterlimit="10" x1="820.549" y1="20.549" x2="1067.763" y2="1581.395"/>
	<line fill="none" stroke="#000000" stroke-miterlimit="10" x1="820.549" y1="20.549" x2="820.549" y2="1620.549"/>
	<line fill="none" stroke="#000000" stroke-miterlimit="10" x1="820.549" y1="20.549" x2="573.336" y2="1581.395"/>
	<line fill="none" stroke="#000000" stroke-miterlimit="10" x1="820.549" y1="20.549" x2="350.321" y2="1467.763"/>
	<line fill="none" stroke="#000000" stroke-miterlimit="10" x1="820.549" y1="20.549" x2="173.336" y2="1290.778"/>
	<line fill="none" stroke="#000000" stroke-miterlimit="10" x1="820.549" y1="20.549" x2="59.704" y2="1067.763"/>
	<line fill="none" stroke="#000000" stroke-miterlimit="10" x1="820.549" y1="20.549" x2="20.549" y2="820.549"/>
	<line fill="none" stroke="#000000" stroke-miterlimit="10" x1="820.549" y1="20.549" x2="59.704" y2="573.336"/>
	<line fill="none" stroke="#000000" stroke-miterlimit="10" x1="820.549" y1="20.549" x2="173.336" y2="350.321"/>
	<line fill="none" stroke="#000000" stroke-miterlimit="10" x1="820.549" y1="20.549" x2="350.321" y2="173.336"/>
	<line fill="none" stroke="#000000" stroke-miterlimit="10" x1="820.549" y1="20.549" x2="573.336" y2="59.704"/>
	<line fill="none" stroke="#000000" stroke-miterlimit="10" x1="1067.763" y1="59.704" x2="1290.778" y2="173.336"/>
	<line fill="none" stroke="#000000" stroke-miterlimit="10" x1="1067.763" y1="59.704" x2="1467.763" y2="350.321"/>
	<line fill="none" stroke="#000000" stroke-miterlimit="10" x1="1067.763" y1="59.704" x2="1581.395" y2="573.336"/>
	<line fill="none" stroke="#000000" stroke-miterlimit="10" x1="1067.763" y1="59.704" x2="1620.549" y2="820.549"/>
	<line fill="none" stroke="#000000" stroke-miterlimit="10" x1="1067.763" y1="59.704" x2="1581.395" y2="1067.763"/>
	<line fill="none" stroke="#000000" stroke-miterlimit="10" x1="1067.763" y1="59.704" x2="1467.763" y2="1290.778"/>
	<line fill="none" stroke="#000000" stroke-miterlimit="10" x1="1067.763" y1="59.704" x2="1290.778" y2="1467.763"/>
	<line fill="none" stroke="#000000" stroke-miterlimit="10" x1="1067.763" y1="59.704" x2="1067.763" y2="1581.395"/>
	<line fill="none" stroke="#000000" stroke-miterlimit="10" x1="1067.763" y1="59.704" x2="820.549" y2="1620.549"/>
	<line fill="none" stroke="#000000" stroke-miterlimit="10" x1="1067.763" y1="59.704" x2="573.336" y2="1581.395"/>
	<line fill="none" stroke="#000000" stroke-miterlimit="10" x1="1067.763" y1="59.704" x2="350.321" y2="1467.763"/>
	<line fill="none" stroke="#000000" stroke-miterlimit="10" x1="1067.763" y1="59.704" x2="173.336" y2="1290.778"/>
	<line fill="none" stroke="#000000" stroke-miterlimit="10" x1="1067.763" y1="59.704" x2="59.704" y2="1067.763"/>
	<line fill="none" stroke="#000000" stroke-miterlimit="10" x1="1067.763" y1="59.704" x2="20.549" y2="820.549"/>
	<line fill="none" stroke="#000000" stroke-miterlimit="10" x1="1067.763" y1="59.704" x2="59.704" y2="573.336"/>
	<line fill="none" stroke="#000000" stroke-miterlimit="10" x1="1067.763" y1="59.704" x2="173.336" y2="350.321"/>
	<line fill="none" stroke="#000000" stroke-miterlimit="10" x1="1067.763" y1="59.704" x2="350.321" y2="173.336"/>
	<line fill="none" stroke="#000000" stroke-miterlimit="10" x1="1067.763" y1="59.704" x2="573.336" y2="59.704"/>
	<line fill="none" stroke="#000000" stroke-miterlimit="10" x1="1290.778" y1="173.336" x2="1467.763" y2="350.321"/>
	<line fill="none" stroke="#000000" stroke-miterlimit="10" x1="1290.778" y1="173.336" x2="1581.395" y2="573.336"/>
	<line fill="none" stroke="#000000" stroke-miterlimit="10" x1="1290.778" y1="173.336" x2="1620.549" y2="820.549"/>
	<line fill="none" stroke="#000000" stroke-miterlimit="10" x1="1290.778" y1="173.336" x2="1581.395" y2="1067.763"/>
	<line fill="none" stroke="#000000" stroke-miterlimit="10" x1="1290.778" y1="173.336" x2="1467.763" y2="1290.778"/>
	<line fill="none" stroke="#000000" stroke-miterlimit="10" x1="1290.778" y1="173.336" x2="1290.778" y2="1467.763"/>
	<line fill="none" stroke="#000000" stroke-miterlimit="10" x1="1290.778" y1="173.336" x2="1067.763" y2="1581.395"/>
	<line fill="none" stroke="#000000" stroke-miterlimit="10" x1="1290.778" y1="173.336" x2="820.549" y2="1620.549"/>
	<line fill="none" stroke="#000000" stroke-miterlimit="10" x1="1290.778" y1="173.336" x2="573.336" y2="1581.395"/>
	<line fill="none" stroke="#000000" stroke-miterlimit="10" x1="1290.778" y1="173.336" x2="350.321" y2="1467.763"/>
	<line fill="none" stroke="#000000" stroke-miterlimit="10" x1="1290.778" y1="173.336" x2="173.336" y2="1290.778"/>
	<line fill="none" stroke="#000000" stroke-miterlimit="10" x1="1290.778" y1="173.336" x2="59.704" y2="1067.763"/>
	<line fill="none" stroke="#000000" stroke-miterlimit="10" x1="1290.778" y1="173.336" x2="20.549" y2="820.549"/>
	<line fill="none" stroke="#000000" stroke-miterlimit="10" x1="1290.778" y1="173.336" x2="59.704" y2="573.336"/>
	<line fill="none" stroke="#000000" stroke-miterlimit="10" x1="1290.778" y1="173.336" x2="173.336" y2="350.321"/>
	<line fill="none" stroke="#000000" stroke-miterlimit="10" x1="1290.778" y1="173.336" x2="350.321" y2="173.336"/>
	<line fill="none" stroke="#000000" stroke-miterlimit="10" x1="1290.778" y1="173.336" x2="573.336" y2="59.704"/>
	<line fill="none" stroke="#000000" stroke-miterlimit="10" x1="1467.763" y1="350.321" x2="1581.395" y2="573.336"/>
	<line fill="none" stroke="#000000" stroke-miterlimit="10" x1="1467.763" y1="350.321" x2="1620.549" y2="820.549"/>
	<line fill="none" stroke="#000000" stroke-miterlimit="10" x1="1467.763" y1="350.321" x2="1581.395" y2="1067.763"/>
	<line fill="none" stroke="#000000" stroke-miterlimit="10" x1="1467.763" y1="350.321" x2="1467.763" y2="1290.778"/>
	<line fill="none" stroke="#000000" stroke-miterlimit="10" x1="1467.763" y1="350.321" x2="1290.778" y2="1467.763"/>
	<line fill="none" stroke="#000000" stroke-miterlimit="10" x1="1467.763" y1="350.321" x2="1067.763" y2="1581.395"/>
	<line fill="none" stroke="#000000" stroke-miterlimit="10" x1="1467.763" y1="350.321" x2="820.549" y2="1620.549"/>
	<line fill="none" stroke="#000000" stroke-miterlimit="10" x1="1467.763" y1="350.321" x2="573.336" y2="1581.395"/>
	<line fill="none" stroke="#000000" stroke-miterlimit="10" x1="1467.763" y1="350.321" x2="350.321" y2="1467.763"/>
	<line fill="none" stroke="#000000" stroke-miterlimit="10" x1="1467.763" y1="350.321" x2="173.336" y2="1290.778"/>
	<line fill="none" stroke="#000000" stroke-miterlimit="10" x1="1467.763" y1="350.321" x2="59.704" y2="1067.763"/>
	<line fill="none" stroke="#000000" stroke-miterlimit="10" x1="1467.763" y1="350.321" x2="20.549" y2="820.549"/>
	<line fill="none" stroke="#000000" stroke-miterlimit="10" x1="1467.763" y1="350.321" x2="59.704" y2="573.336"/>
	<line fill="none" stroke="#000000" stroke-miterlimit="10" x1="1467.763" y1="350.321" x2="173.336" y2="350.321"/>
	<line fill="none" stroke="#000000" stroke-miterlimit="10" x1="1467.763" y1="350.321" x2="350.321" y2="173.336"/>
	<line fill="none" stroke="#000000" stroke-miterlimit="10" x1="1467.763" y1="350.321" x2="573.336" y2="59.704"/>
	<line fill="none" stroke="#000000" stroke-miterlimit="10" x1="1581.395" y1="573.336" x2="1620.549" y2="820.549"/>
	<line fill="none" stroke="#000000" stroke-miterlimit="10" x1="1581.395" y1="573.336" x2="1581.395" y2="1067.763"/>
	<line fill="none" stroke="#000000" stroke-miterlimit="10" x1="1581.395" y1="573.336" x2="1467.763" y2="1290.778"/>
	<line fill="none" stroke="#000000" stroke-miterlimit="10" x1="1581.395" y1="573.336" x2="1290.778" y2="1467.763"/>
	<line fill="none" stroke="#000000" stroke-miterlimit="10" x1="1581.395" y1="573.336" x2="1067.763" y2="1581.395"/>
	<line fill="none" stroke="#000000" stroke-miterlimit="10" x1="1581.395" y1="573.336" x2="820.549" y2="1620.549"/>
	<line fill="none" stroke="#000000" stroke-miterlimit="10" x1="1581.395" y1="573.336" x2="573.336" y2="1581.395"/>
	<line fill="none" stroke="#000000" stroke-miterlimit="10" x1="1581.395" y1="573.336" x2="350.321" y2="1467.763"/>
	<line fill="none" stroke="#000000" stroke-miterlimit="10" x1="1581.395" y1="573.336" x2="173.336" y2="1290.778"/>
	<line fill="none" stroke="#000000" stroke-miterlimit="10" x1="1581.395" y1="573.336" x2="59.704" y2="1067.763"/>
	<line fill="none" stroke="#000000" stroke-miterlimit="10" x1="1581.395" y1="573.336" x2="20.549" y2="820.549"/>
	<line fill="none" stroke="#000000" stroke-miterlimit="10" x1="1581.395" y1="573.336" x2="59.704" y2="573.336"/>
	<line fill="none" stroke="#000000" stroke-miterlimit="10" x1="1581.395" y1="573.336" x2="173.336" y2="350.321"/>
	<line fill="none" stroke="#000000" stroke-miterlimit="10" x1="1581.395" y1="573.336" x2="350.321" y2="173.336"/>
	<line fill="none" stroke="#000000" stroke-miterlimit="10" x1="1581.395" y1="573.336" x2="573.336" y2="59.704"/>
	<line fill="none" stroke="#000000" stroke-miterlimit="10" x1="1620.549" y1="820.549" x2="1581.395" y2="1067.763"/>
	<line fill="none" stroke="#000000" stroke-miterlimit="10" x1="1620.549" y1="820.549" x2="1467.763" y2="1290.778"/>
	<line fill="none" stroke="#000000" stroke-miterlimit="10" x1="1620.549" y1="820.549" x2="1290.778" y2="1467.763"/>
	<line fill="none" stroke="#000000" stroke-miterlimit="10" x1="1620.549" y1="820.549" x2="1067.763" y2="1581.395"/>
	<line fill="none" stroke="#000000" stroke-miterlimit="10" x1="1620.549" y1="820.549" x2="820.549" y2="1620.549"/>
	<line fill="none" stroke="#000000" stroke-miterlimit="10" x1="1620.549" y1="820.549" x2="573.336" y2="1581.395"/>
	<line fill="none" stroke="#000000" stroke-miterlimit="10" x1="1620.549" y1="820.549" x2="350.321" y2="1467.763"/>
	<line fill="none" stroke="#000000" stroke-miterlimit="10" x1="1620.549" y1="820.549" x2="173.336" y2="1290.778"/>
	<line fill="none" stroke="#000000" stroke-miterlimit="10" x1="1620.549" y1="820.549" x2="59.704" y2="1067.763"/>
	<line fill="none" stroke="#000000" stroke-miterlimit="10" x1="1620.549" y1="820.549" x2="20.549" y2="820.549"/>
	<line fill="none" stroke="#000000" stroke-miterlimit="10" x1="1620.549" y1="820.549" x2="59.704" y2="573.336"/>
	<line fill="none" stroke="#000000" stroke-miterlimit="10" x1="1620.549" y1="820.549" x2="173.336" y2="350.321"/>
	<line fill="none" stroke="#000000" stroke-miterlimit="10" x1="1620.549" y1="820.549" x2="350.321" y2="173.336"/>
	<line fill="none" stroke="#000000" stroke-miterlimit="10" x1="1620.549" y1="820.549" x2="573.336" y2="59.704"/>
	<line fill="none" stroke="#000000" stroke-miterlimit="10" x1="1581.395" y1="1067.763" x2="1467.763" y2="1290.778"/>
	<line fill="none" stroke="#000000" stroke-miterlimit="10" x1="1581.395" y1="1067.763" x2="1290.778" y2="1467.763"/>
	<line fill="none" stroke="#000000" stroke-miterlimit="10" x1="1581.395" y1="1067.763" x2="1067.763" y2="1581.395"/>
	<line fill="none" stroke="#000000" stroke-miterlimit="10" x1="1581.395" y1="1067.763" x2="820.549" y2="1620.549"/>
	<line fill="none" stroke="#000000" stroke-miterlimit="10" x1="1581.395" y1="1067.763" x2="573.336" y2="1581.395"/>
	<line fill="none" stroke="#000000" stroke-miterlimit="10" x1="1581.395" y1="1067.763" x2="350.321" y2="1467.763"/>
	<line fill="none" stroke="#000000" stroke-miterlimit="10" x1="1581.395" y1="1067.763" x2="173.336" y2="1290.778"/>
	<line fill="none" stroke="#000000" stroke-miterlimit="10" x1="1581.395" y1="1067.763" x2="59.704" y2="1067.763"/>
	<line fill="none" stroke="#000000" stroke-miterlimit="10" x1="1581.395" y1="1067.763" x2="20.549" y2="820.549"/>
	<line fill="none" stroke="#000000" stroke-miterlimit="10" x1="1581.395" y1="1067.763" x2="59.704" y2="573.336"/>
	<line fill="none" stroke="#000000" stroke-miterlimit="10" x1="1581.395" y1="1067.763" x2="173.336" y2="350.321"/>
	<line fill="none" stroke="#000000" stroke-miterlimit="10" x1="1581.395" y1="1067.763" x2="350.321" y2="173.336"/>
	<line fill="none" stroke="#000000" stroke-miterlimit="10" x1="1581.395" y1="1067.763" x2="573.336" y2="59.704"/>
	<line fill="none" stroke="#000000" stroke-miterlimit="10" x1="1467.763" y1="1290.778" x2="1290.778" y2="1467.763"/>
	<line fill="none" stroke="#000000" stroke-miterlimit="10" x1="1467.763" y1="1290.778" x2="1067.763" y2="1581.395"/>
	<line fill="none" stroke="#000000" stroke-miterlimit="10" x1="1467.763" y1="1290.778" x2="820.549" y2="1620.549"/>
	<line fill="none" stroke="#000000" stroke-miterlimit="10" x1="1467.763" y1="1290.778" x2="573.336" y2="1581.395"/>
	<line fill="none" stroke="#000000" stroke-miterlimit="10" x1="1467.763" y1="1290.778" x2="350.321" y2="1467.763"/>
	<line fill="none" stroke="#000000" stroke-miterlimit="10" x1="1467.763" y1="1290.778" x2="173.336" y2="1290.778"/>
	<line fill="none" stroke="#000000" stroke-miterlimit="10" x1="1467.763" y1="1290.778" x2="59.704" y2="1067.763"/>
	<line fill="none" stroke="#000000" stroke-miterlimit="10" x1="1467.763" y1="1290.778" x2="20.549" y2="820.549"/>
	<line fill="none" stroke="#000000" stroke-miterlimit="10" x1="1467.763" y1="1290.778" x2="59.704" y2="573.336"/>
	<line fill="none" stroke="#000000" stroke-miterlimit="10" x1="1467.763" y1="1290.778" x2="173.336" y2="350.321"/>
	<line fill="none" stroke="#000000" stroke-miterlimit="10" x1="1467.763" y1="1290.778" x2="350.321" y2="173.336"/>
	<line fill="none" stroke="#000000" stroke-miterlimit="10" x1="1467.763" y1="1290.778" x2="573.336" y2="59.704"/>
	<line fill="none" stroke="#000000" stroke-miterlimit="10" x1="1290.778" y1="1467.763" x2="1067.763" y2="1581.395"/>
	<line fill="none" stroke="#000000" stroke-miterlimit="10" x1="1290.778" y1="1467.763" x2="820.549" y2="1620.549"/>
	<line fill="none" stroke="#000000" stroke-miterlimit="10" x1="1290.778" y1="1467.763" x2="573.336" y2="1581.395"/>
	<line fill="none" stroke="#000000" stroke-miterlimit="10" x1="1290.778" y1="1467.763" x2="350.321" y2="1467.763"/>
	<line fill="none" stroke="#000000" stroke-miterlimit="10" x1="1290.778" y1="1467.763" x2="173.336" y2="1290.778"/>
	<line fill="none" stroke="#000000" stroke-miterlimit="10" x1="1290.778" y1="1467.763" x2="59.704" y2="1067.763"/>
	<line fill="none" stroke="#000000" stroke-miterlimit="10" x1="1290.778" y1="1467.763" x2="20.549" y2="820.549"/>
	<line fill="none" stroke="#000000" stroke-miterlimit="10" x1="1290.778" y1="1467.763" x2="59.704" y2="573.336"/>
	<line fill="none" stroke="#000000" stroke-miterlimit="10" x1="1290.778" y1="1467.763" x2="173.336" y2="350.321"/>
	<line fill="none" stroke="#000000" stroke-miterlimit="10" x1="1290.778" y1="1467.763" x2="350.321" y2="173.336"/>
	<line fill="none" stroke="#000000" stroke-miterlimit="10" x1="1290.778" y1="1467.763" x2="573.336" y2="59.704"/>
	<line fill="none" stroke="#000000" stroke-miterlimit="10" x1="1067.763" y1="1581.395" x2="820.549" y2="1620.549"/>
	<line fill="none" stroke="#000000" stroke-miterlimit="10" x1="1067.763" y1="1581.395" x2="573.336" y2="1581.395"/>
	<line fill="none" stroke="#000000" stroke-miterlimit="10" x1="1067.763" y1="1581.395" x2="350.321" y2="1467.763"/>
	<line fill="none" stroke="#000000" stroke-miterlimit="10" x1="1067.763" y1="1581.395" x2="173.336" y2="1290.778"/>
	<line fill="none" stroke="#000000" stroke-miterlimit="10" x1="1067.763" y1="1581.395" x2="59.704" y2="1067.763"/>
	<line fill="none" stroke="#000000" stroke-miterlimit="10" x1="1067.763" y1="1581.395" x2="20.549" y2="820.549"/>
	<line fill="none" stroke="#000000" stroke-miterlimit="10" x1="1067.763" y1="1581.395" x2="59.704" y2="573.336"/>
	<line fill="none" stroke="#000000" stroke-miterlimit="10" x1="1067.763" y1="1581.395" x2="173.336" y2="350.321"/>
	<line fill="none" stroke="#000000" stroke-miterlimit="10" x1="1067.763" y1="1581.395" x2="350.321" y2="173.336"/>
	<line fill="none" stroke="#000000" stroke-miterlimit="10" x1="1067.763" y1="1581.395" x2="573.336" y2="59.704"/>
	<line fill="none" stroke="#000000" stroke-miterlimit="10" x1="820.549" y1="1620.549" x2="573.336" y2="1581.395"/>
	<line fill="none" stroke="#000000" stroke-miterlimit="10" x1="820.549" y1="1620.549" x2="350.321" y2="1467.763"/>
	<line fill="none" stroke="#000000" stroke-miterlimit="10" x1="820.549" y1="1620.549" x2="173.336" y2="1290.778"/>
	<line fill="none" stroke="#000000" stroke-miterlimit="10" x1="820.549" y1="1620.549" x2="59.704" y2="1067.763"/>
	<line fill="none" stroke="#000000" stroke-miterlimit="10" x1="820.549" y1="1620.549" x2="20.549" y2="820.549"/>
	<line fill="none" stroke="#000000" stroke-miterlimit="10" x1="820.549" y1="1620.549" x2="59.704" y2="573.336"/>
	<line fill="none" stroke="#000000" stroke-miterlimit="10" x1="820.549" y1="1620.549" x2="173.336" y2="350.321"/>
	<line fill="none" stroke="#000000" stroke-miterlimit="10" x1="820.549" y1="1620.549" x2="350.321" y2="173.336"/>
	<line fill="none" stroke="#000000" stroke-miterlimit="10" x1="820.549" y1="1620.549" x2="573.336" y2="59.704"/>
	<line fill="none" stroke="#000000" stroke-miterlimit="10" x1="573.336" y1="1581.395" x2="350.321" y2="1467.763"/>
	<line fill="none" stroke="#000000" stroke-miterlimit="10" x1="573.336" y1="1581.395" x2="173.336" y2="1290.778"/>
	<line fill="none" stroke="#000000" stroke-miterlimit="10" x1="573.336" y1="1581.395" x2="59.704" y2="1067.763"/>
	<line fill="none" stroke="#000000" stroke-miterlimit="10" x1="573.336" y1="1581.395" x2="20.549" y2="820.549"/>
	<line fill="none" stroke="#000000" stroke-miterlimit="10" x1="573.336" y1="1581.395" x2="59.704" y2="573.336"/>
	<line fill="none" stroke="#000000" stroke-miterlimit="10" x1="573.336" y1="1581.395" x2="173.336" y2="350.321"/>
	<line fill="none" stroke="#000000" stroke-miterlimit="10" x1="573.336" y1="1581.395" x2="350.321" y2="173.336"/>
	<line fill="none" stroke="#000000" stroke-miterlimit="10" x1="573.336" y1="1581.395" x2="573.336" y2="59.704"/>
	<line fill="none" stroke="#000000" stroke-miterlimit="10" x1="350.321" y1="1467.763" x2="173.336" y2="1290.778"/>
	<line fill="none" stroke="#000000" stroke-miterlimit="10" x1="350.321" y1="1467.763" x2="59.704" y2="1067.763"/>
	<line fill="none" stroke="#000000" stroke-miterlimit="10" x1="350.321" y1="1467.763" x2="20.549" y2="820.549"/>
	<line fill="none" stroke="#000000" stroke-miterlimit="10" x1="350.321" y1="1467.763" x2="59.704" y2="573.336"/>
	<line fill="none" stroke="#000000" stroke-miterlimit="10" x1="350.321" y1="1467.763" x2="173.336" y2="350.321"/>
	<line fill="none" stroke="#000000" stroke-miterlimit="10" x1="350.321" y1="1467.763" x2="350.321" y2="173.336"/>
	<line fill="none" stroke="#000000" stroke-miterlimit="10" x1="350.321" y1="1467.763" x2="573.336" y2="59.704"/>
	<line fill="none" stroke="#000000" stroke-miterlimit="10" x1="173.336" y1="1290.778" x2="59.704" y2="1067.763"/>
	<line fill="none" stroke="#000000" stroke-miterlimit="10" x1="173.336" y1="1290.778" x2="20.549" y2="820.549"/>
	<line fill="none" stroke="#000000" stroke-miterlimit="10" x1="173.336" y1="1290.778" x2="59.704" y2="573.336"/>
	<line fill="none" stroke="#000000" stroke-miterlimit="10" x1="173.336" y1="1290.778" x2="173.336" y2="350.321"/>
	<line fill="none" stroke="#000000" stroke-miterlimit="10" x1="173.336" y1="1290.778" x2="350.321" y2="173.336"/>
	<line fill="none" stroke="#000000" stroke-miterlimit="10" x1="173.336" y1="1290.778" x2="573.336" y2="59.704"/>
	<line fill="none" stroke="#000000" stroke-miterlimit="10" x1="59.704" y1="1067.763" x2="20.549" y2="820.549"/>
	<line fill="none" stroke="#000000" stroke-miterlimit="10" x1="59.704" y1="1067.763" x2="59.704" y2="573.336"/>
	<line fill="none" stroke="#000000" stroke-miterlimit="10" x1="59.704" y1="1067.763" x2="173.336" y2="350.321"/>
	<line fill="none" stroke="#000000" stroke-miterlimit="10" x1="59.704" y1="1067.763" x2="350.321" y2="173.336"/>
	<line fill="none" stroke="#000000" stroke-miterlimit="10" x1="59.704" y1="1067.763" x2="573.336" y2="59.704"/>
	<line fill="none" stroke="#000000" stroke-miterlimit="10" x1="20.549" y1="820.549" x2="59.704" y2="573.336"/>
	<line fill="none" stroke="#000000" stroke-miterlimit="10" x1="20.549" y1="820.549" x2="173.336" y2="350.321"/>
	<line fill="none" stroke="#000000" stroke-miterlimit="10" x1="20.549" y1="820.549" x2="350.321" y2="173.336"/>
	<line fill="none" stroke="#000000" stroke-miterlimit="10" x1="20.549" y1="820.549" x2="573.336" y2="59.704"/>
	<line fill="none" stroke="#000000" stroke-miterlimit="10" x1="59.704" y1="573.336" x2="173.336" y2="350.321"/>
	<line fill="none" stroke="#000000" stroke-miterlimit="10" x1="59.704" y1="573.336" x2="350.321" y2="173.336"/>
	<line fill="none" stroke="#000000" stroke-miterlimit="10" x1="59.704" y1="573.336" x2="573.336" y2="59.704"/>
	<line fill="none" stroke="#000000" stroke-miterlimit="10" x1="173.336" y1="350.321" x2="350.321" y2="173.336"/>
	<line fill="none" stroke="#000000" stroke-miterlimit="10" x1="173.336" y1="350.321" x2="573.336" y2="59.704"/>
	<line fill="none" stroke="#000000" stroke-miterlimit="10" x1="350.321" y1="173.336" x2="573.336" y2="59.704"/>
</g>
</svg>
